<svg xmlns="http://www.w3.org/2000/svg" width="1200" height="330" viewBox="0 0 1200 330" role="img" aria-labelledby="title desc">
  <title id="title">Hammad Ali Haider — AI Engineer and M.S. Computer Science Researcher</title>
  <desc id="desc">Professional GitHub profile banner for AI engineering and research.</desc>
  <rect width="1200" height="330" rx="24" fill="#0D1724"/>
  <rect x="24" y="24" width="1152" height="282" rx="18" fill="#111C29" stroke="#2B3A48" stroke-width="1.5"/>
  <rect x="70" y="58" width="76" height="4" rx="2" fill="#6E879A"/>
  <line x1="785" y1="58" x2="1110" y2="58" stroke="#314252" stroke-width="1"/>
  <line x1="785" y1="93" x2="1110" y2="93" stroke="#243443" stroke-width="1"/>
  <line x1="785" y1="128" x2="1110" y2="128" stroke="#243443" stroke-width="1"/>
  <line x1="785" y1="163" x2="1110" y2="163" stroke="#243443" stroke-width="1"/>
  <line x1="785" y1="198" x2="1110" y2="198" stroke="#243443" stroke-width="1"/>
  <circle cx="812" cy="58" r="4" fill="#6E879A"/>
  <circle cx="1078" cy="128" r="4" fill="#7B8792"/>
  <circle cx="905" cy="198" r="4" fill="#5E7486"/>
  <text x="70" y="124" fill="#F5F7FA" font-family="Inter,Segoe UI,Arial,sans-serif" font-size="52" font-weight="700">Hammad Ali Haider</text>
  <text x="72" y="168" fill="#C8D0D8" font-family="Inter,Segoe UI,Arial,sans-serif" font-size="25" font-weight="500">AI Engineer  •  M.S. Computer Science Researcher</text>
  <text x="72" y="215" fill="#9FB0BF" font-family="Inter,Segoe UI,Arial,sans-serif" font-size="20">Computer Vision  ·  Foundation Models  ·  Time-Series Learning</text>
  <text x="72" y="248" fill="#8F9EAA" font-family="Inter,Segoe UI,Arial,sans-serif" font-size="20">Applied AI  ·  Reproducible Evaluation  ·  Efficient Learning</text>
  <line x1="70" y1="279" x2="610" y2="279" stroke="#415566" stroke-width="2"/>
  <text x="72" y="307" fill="#7F8D99" font-family="Inter,Segoe UI,Arial,sans-serif" font-size="14" letter-spacing="1.25">ENGINEERING SYSTEMS • REPRODUCIBLE RESEARCH</text>
  <rect x="924" y="228" width="186" height="48" rx="8" fill="#162534" stroke="#3A4C5C"/>
  <text x="1017" y="258" text-anchor="middle" fill="#B8C3CC" font-family="Inter,Segoe UI,Arial,sans-serif" font-size="14" letter-spacing="1">AI / RESEARCH</text>
</svg>